/* XPM */
static char *c86d3ac1ac534158ea05e1a57342aea8m4c3fnxHHcEsveD8[] = {
/* columns rows colors chars-per-pixel */
"50 50 208 2 ",
"   c #1B4324",
".  c #1E4925",
"X  c #1B4927",
"o  c #224B25",
"O  c #224C2A",
"+  c #23552C",
"@  c #28582A",
"#  c #2C5B34",
"$  c #2D5233",
"%  c #315A35",
"&  c #37652C",
"*  c #2E6B32",
"=  c #2D6436",
"-  c #356A34",
";  c #346E39",
":  c #3B6D39",
">  c #376634",
",  c #377735",
"<  c #3E753A",
"1  c #3C7A3A",
"2  c #397838",
"3  c #427537",
"4  c #42733C",
"5  c #4A7D3B",
"6  c #447A39",
"7  c #497134",
"8  c #193D45",
"9  c #163F49",
"0  c #1E4548",
"q  c #1D4745",
"w  c #24494B",
"e  c #214D47",
"r  c #265546",
"t  c #265448",
"y  c #2B5A45",
"u  c #315E4F",
"i  c #2C4D54",
"p  c #274D51",
"a  c #304E57",
"s  c #35565A",
"d  c #2F6248",
"f  c #316445",
"g  c #3B6947",
"h  c #3F6850",
"j  c #3C754D",
"k  c #466847",
"l  c #467D45",
"z  c #497847",
"x  c #527C4A",
"c  c #557941",
"v  c #497756",
"b  c #527756",
"n  c #607D5C",
"m  c #54756E",
"M  c #3B803C",
"N  c #458435",
"B  c #4B843B",
"V  c #478B3B",
"C  c #4B8C38",
"Z  c #448538",
"A  c #538C3B",
"S  c #5D8C3E",
"D  c #528C38",
"F  c #559136",
"G  c #5B943A",
"H  c #5E9839",
"J  c #5A9437",
"K  c #638F3F",
"L  c #629C36",
"P  c #649B3B",
"I  c #67953E",
"U  c #6BA337",
"Y  c #79A83D",
"T  c #578649",
"R  c #5C9544",
"E  c #5B944D",
"W  c #509340",
"Q  c #5E8A53",
"!  c #5B8457",
"~  c #4C8544",
"^  c #669546",
"/  c #6A9C5A",
"(  c #769B5A",
")  c #6C9043",
"_  c #7CA947",
"`  c #78A658",
"'  c #7BB15E",
"]  c #558667",
"[  c #66886A",
"{  c #739D6D",
"}  c #779765",
"|  c #698A76",
" . c #759279",
".. c #779678",
"X. c #70916A",
"o. c #79AB64",
"O. c #79A573",
"+. c #67A774",
"@. c #86B043",
"#. c #97B65D",
"$. c #95BA43",
"%. c #A0BD5E",
"&. c #84A96F",
"*. c #89B468",
"=. c #97B967",
"-. c #83A57A",
";. c #8DB07B",
":. c #94B878",
">. c #A7BF78",
",. c #9FC26E",
"<. c #97C078",
"1. c #A5C174",
"2. c #B2CC6C",
"3. c #5F7C81",
"4. c #627B80",
"5. c #3DB798",
"6. c #22AEA5",
"7. c #5F8680",
"8. c #7D9987",
"9. c #798D91",
"0. c #678C91",
"q. c #7EA983",
"w. c #7AADA1",
"e. c #7BAEB4",
"r. c #68B8B3",
"t. c #66B6C2",
"y. c #21D2D7",
"u. c #02DDFB",
"i. c #0BDEFA",
"p. c #13DDF7",
"a. c #32DFF4",
"s. c #3FDEF2",
"d. c #2BE0F9",
"f. c #52DDD4",
"g. c #5AE3F3",
"h. c #67E5F1",
"j. c #869B89",
"k. c #8CB18B",
"l. c #9AB58B",
"z. c #92B699",
"x. c #8EAF97",
"c. c #A2B987",
"v. c #A2BE9A",
"b. c #9EB1A0",
"n. c #87BCBD",
"m. c #A9B7AB",
"M. c #A5BCA5",
"N. c #96C281",
"B. c #8ECD9F",
"V. c #ABC38A",
"C. c #B8CA8F",
"Z. c #BFD38F",
"A. c #BFD291",
"S. c #88C8A9",
"D. c #A6C9A7",
"F. c #B4D2A2",
"G. c #BBD4A7",
"H. c #B8C8BB",
"J. c #B9D5BA",
"K. c #AED3BA",
"L. c #B9E2B7",
"P. c #F5EE82",
"I. c #C6D6B5",
"U. c #D6DFBB",
"Y. c #DEE5B4",
"T. c #FFFAAD",
"R. c #F7F5AC",
"E. c #E0E8BD",
"W. c #93CDCC",
"Q. c #9CD7CA",
"!. c #93D0D7",
"~. c #91D0D8",
"^. c #9AD8D9",
"/. c #8FD3D4",
"(. c #A2CEC6",
"). c #AADECC",
"_. c #A0D1C7",
"`. c #A9D7DB",
"'. c #BAD8D7",
"]. c #B5CBC2",
"[. c #A3E8CC",
"{. c #B6DCE1",
"}. c #86E5EB",
"|. c #83EFFB",
" X c #9DEFF9",
".X c #80F0FF",
"XX c #8AF0FC",
"oX c #9AF0FC",
"OX c #AFEEF2",
"+X c #C0CEC6",
"@X c #C6D9C6",
"#X c #DDE4C1",
"$X c #D2E6D1",
"%X c #E9EDC9",
"&X c #E9EDD8",
"*X c #CAE8E9",
"=X c #D8E6E7",
"-X c #D6F3EC",
";X c #DCF1ED",
":X c #DDEFF0",
">X c #DEF4F4",
",X c #D8F7FB",
"<X c #C4F1F7",
"1X c #ECEEEC",
"2X c #E5EBE8",
"3X c #F1F2EA",
"4X c #ECF3F3",
"5X c #F3F3F2",
/* pixels */
"~..X,X,X,X.X.X.X~..X,X.X~.u.u..X~.~.~.u.,X.X.X.Xu.~..X,X.X.X,X.X~..X,X,X,X.X.X.X~..X,X.X~.u.u..X~.~.",
"~..X.X.X,X.X.X~.u.~..X,X.X~.u.~.u.~.~.,X.X,X.Xu.u.~.T.T..X.XT.T.~..X.X.X,X.X.X~.u.~..X,X.X~.u.~.u.~.",
".X~..X~.,X,X.X~.u.~..X,X.X~.u.~.~.u.~..X,X.X~.u.~..XT.P.T.T.P.T..X~..X~.,X,X.X~.u.~..X,X.X~.u.~.~.u.",
",X.X~.u.u.,X,X.X~.u.~..X~.u.~..X.X~.~.~..X~.u.~..X,X.XT.P.P.T..X,X.X~.u.u.,X,X.X~.u.~..X~.u.~..X.X~.",
",X,Xu.u.u.u..X.X~.u.~..X,X.X~.u.,X,X.X~.u.~..X.X~.u.~.T.P.P.T..X,X,Xu.u.u.u..X.X~.u.~..X,X.X~.u.,X,X",
".Xu.u..X~.u..X.X.X~.u.~..X,X,X,X,X,X.X~.u.~..X~.u.~.T.P.T.T.P.T..Xu.u..X~.u..X.X.X~.u.~..X,X,X,X,X,X",
"u.u.,X,X.X.Xu.~..X.X~.u.~..X,X,X,X~.~.u.~..X~.u.!..XT.R.Q..XT.T.u.u.,X,X.X.Xu.~..X.X~.u.~..X,X,X,X~.",
"u.~..X.X.X,X,X,X,X,X.X~.u.~..X,X,X,X,X~..X~.u.~..X.Xi.K.;X,X.Xu.u.~..X.X.X,X,X,X,X,X.X~.u.~..X,X,X,X",
"~..X.X~.u.~.~..X,X.X,X,X~.u.~..X~.~.,X,X.X~.u.~..X.X~.).OX.X~.u.~..X.X~.u.~.~..X,X.X,X,X~.u.~..X~.~.",
"u..X.X.X~.u.~..X,X,X.X~.,X,X.X,X.X.X.X.X,Xu.u.u.u..X.XG.h..X.Xu.u..X.X.X~.u.~..X,X,X.X~.,X,X.X,X.X.X",
"u..X~..Xu.~.~.~..X.X~.u.~..X,X,X.X~..Xu.u.,X.Xu.u.~..XG.g.!.,Xu.u..X~..Xu.~.~.~..X.X~.u.~..X,X,X.X~.",
"u..X.X,Xu.~.~.~..X,X.X~.u.~..X.X,X~.u.u.~.,Xu..X~.u.!.G.`.u..Xi.u..X.X,Xu.~.~.~..X,X.X~.u.~..X.X,X~.",
"u.u..X.X,X,X,Xu..X.X,X.X~.u..X.Xu.,X~.~..X,X,X.X~.u.~.z.@Xu.~.u.u.u..X.X,X,X,Xu..X.X,X.X~.u..X.Xu.,X",
"u.u..X,X,X.X,X,X.X.X.X~.u.~..Xu..X,X,X~..X,X,X~.u.~..Xz.D.~.i.~.u.u..X,X,X.X,X,X.X.X.X~.u.~..Xu..X,X",
"~.u.~..X,X,X.X,X.X~..X~.u.~..Xu..X~.,X~..X.X,Xu.~..X,Xl.F.u.,X.X~.u.~..X,X,X.X,X.X~..X~.u.~..Xu..X~.",
".X~.u..X.X.X,X,X~..Xu.u.~..X.X.X~.u.~.,X.X~.,X!..X,X^.=.Q.~..X,X.X~.u..X.X.X,X,X~..Xu.u.~..X.X.X~.u.",
"~.u.~.u..X,Xu.u.~..Xu.u..Xu..X.X~.u.!.>XD.a.u.,X,X|.: o.`..X,X.X~.u.~.u..X,Xu.u.~..Xu.u..Xu..X.X~.u.",
"u.~.,X,X.Xu.~.u..X.Xu.~.u..X.X,X.X~.i.K.I.S.u.,X,X.X^ D.^.,X.X~.u.~.,X,X.Xu.~.u..X.Xu.~.u..X.X,X.X~.",
",X,X,X.X.Xu.~.u.,X.X~.u.u..X,X.X,X.X!.B.V.k.i.,X.X!.T J..X|.~.u.,X,X,X.X.Xu.~.u.,X.X~.u.u..X,X.X,X.X",
".X.X.X,X.X.Xu.u.~..X.Xu.u..Xu.,X.X,X.XF.Z.{ r.,X~.|.^ ).~.,X|.,X.X.X.X,X.X.Xu.u.~..X.Xu.u..Xu.,X.X,X",
"u..X.X,X.X.Xu.u.~..X,Xu.~..X~.u.,X.X,XL.I.O.j ,Xi.^.l.@Xu.,X.X,Xu..X.X,X.X.Xu.u.~..X,Xu.~..X~.u.,X.X",
"~.u..X.X.Xu.~.~.~..Xu..X~..X~.u.u..X-Xo.D.v.< 8.d.`.H.l.p..X,X,X~.u..X.X.Xu.~.~.~..Xu..X~..X~.u.u..X",
".X~..X.X.Xu..X~.u..X.X~.u..X.X,Xi.f.' W M.J.3 b `.h.+X% (.u..X,X.X~..X.X.Xu..X~.u..X.X~.u..X.X,Xu.u.",
",X.X.X.X~.u.~.u.u..X.X~.u..X.X,X$XE V D ;.$Xz b '. XH.= q.u.~.,X,X.X.X.X~.u.~.u.u..X.X~.u..X.X,X,Xu.",
".X.X.X.X.X~.~.u.u..X~.u.~..X,X,X=., V V / 2X! X.*X2Xk.- l !.u.,X.X.X.X.X.X~.~.u.u..X~.u.~..X,X,X.Xu.",
".X,X.Xu..X~.u.u.u..X~.u.~..X,X.Xc , C F G M.T b.4X@XR N , *.u.,X.X,X.Xu..X~.u.u.u..X~.u.~..X,X.X~.u.",
".X.Xu.u.~..Xu.~.u..Xu.~..X.X,X.X: 1 C L L ! 3 m.4X*.L N Z ` ~..X.X.Xu.u.~..Xu.~.u..Xu.~..X.X,X.X~.u.",
",Xu.u.~.~.u..X.Xu..Xu..X.X,X.X~.z 1 V L L < > H.F.P N H M :..X.X,Xu.u.~.~.u..X.Xu..Xu..X.X,X.X~.u.~.",
",Xu.~.~.u.~..X,X.X.Xu..X.X,X,X|.( , C L J ! > :._ F F F D ,.,X.X,Xu.~.~.u.~..X,X.X.Xu..X.X,X,X.X~.u.",
".X,Xu.~.u.~..X.X.X.X.Xu..X,X.X-X#.* N G / M.K U U L L G G 2. X}..X,Xu.~.u.~..X.X.X.X.Xu..X,X.X,X.X~.",
".X,Xu.~.~.u.~..X.X.Xu.u.u..X,X|.@.T 1 B X.I.Y L L L H G _ #XN._..X,Xu.~.~.u.~..X.X.Xu.u.u..X,X.X,X.X",
".X.X,X~..X~..X.X.X,X.X~.u.u.i.-XL c.6 3 # >.P H H G P P 1.G.*..X.X.X,X~..X~..X.X.X,X.X~.u.u.u.,X.X~.",
"~..X,X,X,X.X.X.X~..X,X.X!.u.g.[.F I.( 6 b I G G F G I 2.E.:.:..X~.h.,X,X,X.X.X.X~..X,X.X~.u.u..X~.~.",
"~..X.X.X,X.X.X~.u.~..X,X.X(.^.@X$.-.l.5 ..3 B B A A S U.&X*.:..X~..X.X.X,X.X.X~.u.~..X,X.X~.u.~.u.~.",
".X~..X~.,X,X.X~.u.~..X,XXXD.H.4X&X_ E Q ! = 2 1 B B #.%XY.` o.,X.X~..X~.,X,X.X~.u.~..X,X.X~.u.~.~.u.",
",X.X~.u.u.,X,X.X~.u.~.|.F.D.Q 2X1X&.S { 4 3 ; 6 T 2.Y.5XY.R / .X,X.X~.u.u.,X,X.X~.u.~..X~.u.~..X.X~.",
",X,Xu.u.u.u..X.X~.u.~..X<.2.%.A.%XV.S : = 5 = ) c 3X3XA.=.l ( |.,X,Xu.u.u.u..X.X~.u.~..X,X.X~.u.,X,X",
".Xu.u..X~.u..X.X.X~.u.~.+.^ K 6 - : 5 )  .- : 7 $ &X1.` ~ g C.T..Xu.u..X~.u..X.X.X~.u.~..X,X,X,X,X,X",
"u.u.,X,X.X.Xu.~..X.X~.u.W.P G A B 4 = & } + > o k =.Q l v x c.T.u.u.,X,X.X.Xu.~..X.X~.u.~..X,X,X,X~.",
"u.~..X.X.X,X,X,X,X,X.X~.u.O.L ^ A 5 : + & o 7 o X.( z d ..T /.u.u.~..X.X.X,X,X,X,X,X.X~.u.~..X,X,X,X",
"~..X.X~.u.~.~..X,X.X,X,X~.p.R P G B ; # & k [ . j.I.~ r d ] !.i.~..X.X~.u.~.~..X,X.X,X,X~.u.~..X~.~.",
"u..X.X.X~.u.~..X,X,X.X~.,X,X}.E G - @ + & n  .  x X.] t v }..Xi.u..X.X.X~.u.~..X,X,X.X~.,X,X.X,X.X.X",
"u..X~..Xu.~.~.~..X.X~.u.~..X,X,X}.z + . @ -.m.. : u | q t !.,Xa.y..X~..Xu.~.~.~..X.X~.u.~..X,X,X.X~.",
"u..X.X,Xu.~.~.~..X,X.X~.u.~..X.X,X[ . + # ! H.# f w m 0 e s.oXS.5..X.X,Xu.~.~.~..X,X.X~.u.~..X.X,X~.",
"u.u..X.X,X,X,Xu..X.X,X.X~.u..X.Xu.8.. @ g j. .g r 8 s w 0 z.q.+.6.u..X.X,X,X,Xu..X.X,X.X~.u..X.Xu.,X",
"u.u..X,X,X.X,X,X.X.X.X~.u.~..Xu.|.'.. + O +Xb b q 8 i s 8 { f v u.u..X,X,X.X,X,X.X.X.X~.u.~..Xu..X,X",
"~.u.~..X,X,X.X,X.X~..X~.u.~..Xu..X!.% O   =X..x.h p a 4.8 f t 7.~.u.~..X,X,X.X,X.X~..X~.u.~..Xu..X~.",
".X~.u..X.X.X,X,X~..Xu.u.~..X.X.X~.i.n.O   m.b.].w.'.e.9.9 y 0 s .X~.u..X.X.X,X,X~..Xu.u.~..X.X.X~.u.",
"~.u.~.u..X,Xu.u.~..Xu.u..Xu..X.X~.u.!.*X  O n >X:XOX{.m 0 0 i t.~.u.~.u..X,Xu.u.~..Xu.u..Xu..X.X~.u.",
"u.~.,X,X.Xu.~.u..X.Xu.~.u..X.X,X.X~.u.!.8.  | 4X4X<X=X0.p 3.e.!.u.~.,X,X.Xu.~.u..X.Xu.~.u..X.X,X.X~."
};
