/* XPM */
static char *_7b5e989a5e14c24b4f8511d9e8ebe490ftoDwdexg3Cgzpg[] = {
/* columns rows colors chars-per-pixel */
"50 50 205 2 ",
"   c #010101",
".  c #030C0C",
"X  c #131313",
"o  c #0A2323",
"O  c #133536",
"+  c #2C5150",
"@  c #2D4948",
"#  c #316E6D",
"$  c #3B7979",
"%  c #45605F",
"&  c #567071",
"*  c #457A7A",
"=  c #DB154D",
"-  c #FB1D53",
";  c #F61D53",
":  c #E51C52",
">  c #EB374B",
",  c #EE265A",
"<  c #DC3064",
"1  c #D73F74",
"2  c #E73065",
"3  c #EC5447",
"4  c #EE7B41",
"5  c #DE577D",
"6  c #D64075",
"7  c #E6577B",
"8  c #B38B2E",
"9  c #C79723",
"0  c #D8AC38",
"q  c #DDB134",
"w  c #F4BA2F",
"e  c #EAB937",
"r  c #F4BC31",
"t  c #F5BA3A",
"y  c #F1A23B",
"u  c #FCC335",
"i  c #F5C43E",
"p  c #FEC539",
"a  c #F7C137",
"s  c #B59B5B",
"d  c #AC9B73",
"f  c #96B07F",
"g  c #BBBE6C",
"h  c #B7BD72",
"j  c #ADBB75",
"k  c #C4A14F",
"l  c #CEBE5A",
"z  c #D8BF53",
"x  c #F0BB49",
"c  c #CEBE62",
"v  c #D9C459",
"b  c #E4C34C",
"n  c #EDC446",
"m  c #F2C542",
"M  c #FBC642",
"N  c #FEC944",
"B  c #F6C449",
"V  c #F8C84A",
"C  c #F7C957",
"Z  c #CAC163",
"A  c #C8C876",
"S  c #F4CF6B",
"D  c #F7CD61",
"F  c #F4D37C",
"G  c #F4CD67",
"H  c #9E5F90",
"J  c #BC5A8B",
"K  c #B95B91",
"L  c #8E699B",
"P  c #AC669B",
"I  c #B26296",
"U  c #9B78AD",
"Y  c #A974A6",
"T  c #C84E83",
"R  c #C65085",
"E  c #D96082",
"W  c #EA6183",
"Q  c #5A9191",
"!  c #7BB69D",
"~  c #5CB7BF",
"^  c #62ADAE",
"/  c #6AB2A8",
"(  c #7AB7A5",
")  c #63B6B9",
"_  c #78BCB7",
"`  c #2DACDD",
"'  c #35AEDA",
"]  c #3BB2DA",
"[  c #2CAEE1",
"{  c #31AFE0",
"}  c #2EB2E5",
"|  c #2DB3E8",
" . c #34B3E4",
".. c #3CB5E5",
"X. c #33B5E9",
"o. c #3AB7E9",
"O. c #3CB9EB",
"+. c #35B9EE",
"@. c #3CBDF3",
"#. c #5E95C8",
"$. c #7C94C9",
"%. c #5AB7C7",
"&. c #48B5D6",
"*. c #53B7D0",
"=. c #62B7C0",
"-. c #45ADE2",
";. c #4ABAE6",
":. c #44BCED",
">. c #4CBDEB",
",. c #44B8E5",
"<. c #56BCE7",
"1. c #44BEF1",
"2. c #4DBCF1",
"3. c #55BBF2",
"4. c #69B9E5",
"5. c #02DDFB",
"6. c #0EDEFA",
"7. c #77C3C6",
"8. c #65C6DC",
"9. c #6BC5D4",
"0. c #78C2DF",
"q. c #4CC0EF",
"w. c #53C2ED",
"e. c #5AC3EB",
"r. c #45C0F5",
"t. c #4AC1F5",
"y. c #45C3FA",
"u. c #49C6FE",
"i. c #4FC8FE",
"p. c #53C4F2",
"a. c #51C6FA",
"s. c #53C9FE",
"d. c #5CC7F6",
"f. c #69C5EB",
"g. c #78C8E8",
"h. c #67C8F2",
"j. c #44E2F9",
"k. c #9BBC8A",
"l. c #9DBE95",
"z. c #A5BB88",
"x. c #8A87BD",
"c. c #A695B9",
"v. c #92ACA9",
"b. c #85B9A6",
"n. c #87BDBA",
"m. c #DC968E",
"M. c #F090A7",
"N. c #EB8DA4",
"B. c #ABC58F",
"V. c #DCC694",
"C. c #F7D787",
"Z. c #F2DA99",
"A. c #F4D894",
"S. c #EDD391",
"D. c #F5EE82",
"F. c #D0CDA8",
"G. c #EDDAA5",
"H. c #ECD9AB",
"J. c #F2DEA6",
"K. c #ECDDB4",
"L. c #F4E0AC",
"P. c #FAE3A7",
"I. c #FFFAAD",
"U. c #F1E3B9",
"Y. c #8090C6",
"T. c #868BC1",
"R. c #D6B8C9",
"E. c #9EC1C0",
"W. c #80C2DA",
"Q. c #91D0D8",
"!. c #9BD3D9",
"~. c #80C9CA",
"^. c #BECAC8",
"/. c #AAD3D6",
"(. c #85CEEC",
"). c #88C7E5",
"_. c #99D3E9",
"`. c #84DAEA",
"'. c #A6D6E9",
"]. c #B2DAEA",
"[. c #BCDDEB",
"{. c #BADBE4",
"}. c #8AEFFD",
"|. c #9AEFF7",
" X c #80F0FF",
".X c #8FF0FD",
"XX c #93F0FD",
"oX c #A8EEF2",
"OX c #D8DEDE",
"+X c #D2DDCE",
"@X c #E6DDC5",
"#X c #CAE1DF",
"$X c #E9E1C4",
"%X c #F4E8C8",
"&X c #F3EDD4",
"*X c #C6DEE7",
"=X c #F0DDE2",
"-X c #C5E1EC",
";X c #CCE5EA",
":X c #D6ECF2",
">X c #D8F7FB",
",X c #D9F2F7",
"<X c #EEE1E5",
"1X c #F5F5F5",
"2X c #EAF5F2",
/* pixels */
"Q. X>X>X>X X X XQ. X>X XQ.5.5. XQ.Q.Q.5.>X X X X5.Q. X>X X X>X XQ. X>X>X>X X X XQ. X>X XQ.5.5. XQ.Q.",
"Q. X X X>X X XQ.5.Q. X>X XQ.5.Q.5.Q.Q.>X X>X X5.5.Q.I.I. X XI.I.Q. X X X>X X XQ.5.Q. X>X XQ.5.Q.5.Q.",
" XQ. XQ.>X>X XQ.5.Q. X>X XQ.5.Q.Q.5.Q. X>X XQ.5.Q. XI.D.I.I.D.I. XQ. XQ.>X>X XQ.5.Q. X>X XQ.5.Q.Q.5.",
">X XQ.5.5.>X>X XQ.5.Q. XQ.5.Q. X XQ.Q.Q. XQ.5.Q. X>X XI.D.D.I. X>X XQ.5.5.>X>X XQ.5.Q. XQ.5.Q. X XQ.",
">X>X5.5.5.5. X XQ.5.Q. X>X XQ.5.>X>X XQ.5.Q. X XQ.5.Q.I.D.D.I. X>X>X5.5.5.5. X XQ.5.Q. X>X XQ.5.>X>X",
" X5.5. XQ.5. X X XQ.5.Q. X>X>X>X>X>X XQ.5.Q. XQ.5.Q.I.D.I.I.D.I. X5.5. XQ.5. X X XQ.5.Q. X>X>X>X>X>X",
"5.5.>X>X X X5.Q. X XQ.5.Q. X>X>X>XQ.Q.5.Q. XQ.5.Q. XI.I.Q. XI.I.5.5.>X>X X X5.Q. X XQ.5.Q. X>X>X>XQ.",
"5.Q. X X X>X>X>X>X>X XQ.5.Q. X>X>X>X>XQ. XQ.5.Q. X X5. X>X>X X5.5.Q. X X X>X>X>X>X>X XQ.5.Q. X>X>X>X",
"Q. X XQ.5.Q.Q. X>X X>X>XQ.5.Q. XQ.Q.>X>X XQ.5.Q. X XQ.5. X XQ.5.Q.g.g.Q.5.Q.Q. X>X X>X>XQ.5.Q. XQ.Q.",
"5. X X XQ.5.Q. X>X>X XQ.>X>X X>X X X X X>X5.5.5.5. X XQ.5. X X5.5. X}.[.].;XQ. X>X>X XQ.>X>X X>X X X",
"5. XQ. X5.Q.Q.Q. X XQ.5.Q. X>X>X XQ. X5.5.>X X5.5.Q. XQ.5.Q.>X5.].f.:.u.u.s.W.Q. X XQ.5.Q. X>X>X XQ.",
"5. X X>X5.Q.Q.Q. X>X XQ.5.Q. X X>XQ.5.5.Q.>X5. XQ.5.Q. XQ.5._.p.u.u.:.u.u.s.w._. X>X XQ.5.Q. X X>XQ.",
"5.5. X X>X>X>X5. X X>X XQ.5. X X5.>XQ.Q. X>X>X XQ.5.Q. X:X4.u.u.u.u.:.u.u.i.>.d.-X X>X XQ.5. X X5.>X",
"5.5. X>X>X X>X>X X X XQ.5.Q. X5. X>X>XQ. X>X>XQ.5.Q. X-Xt.1.y.u.u.u.1.i.u.u.1.u.(. X XQ.5.Q. X5. X>X",
"Q.5.Q. X>X>X X>X%XA.K.Q.5.Q. X5. XQ.>XQ. X X>X5.Q. X'.i.u.u.@.@.@.@.+.:.,.&.] @.:.Q. XQ.5.Q. X5. XQ.",
" XQ.5. X X X>XC.p V 5.5.Q. X X XQ.5.Q.>X XQ.>XQ. X[.;.u.u.y.X.| } =.l.g l z l j ! |.5.5.Q. X X XQ.5.",
"Q.5.Q.5. X>XC p h 7.5.5. X5. X XQ.5.Q.>XQ.5.5.>X,Xi.y.O.@.| { ..9.V p p p p p p p M L.5. X5. X XQ.5.",
"5.Q.>X>X XF b ) } ;.5.Q.5. X X>X XQ.5.Q.>X5.5.>X<.y.y.X. .O.y.s.A p p p p u u u p p p Z.5. X X>X XQ.",
">X>X>Xg.&Xp / | |  .Q.5.5. X>X X>X XQ.5.>XQ.5._.u.O.-.L y.u.s.~.N p p p w 8 8 9 r p p p %X X>X X>X X",
" X X X>XZ.b [ [ | | *X5.5. X5.>X X>X XQ.>XQ.{.:.u.#.< 2 u.s.i.A p p p r d ^.OX^.s r p p C  X5.>X X>X",
"5. X X>XC.Z | ` } y._.5.Q. XQ.5.>X X>X X>X>Xh.:.O.P - 6 s.s.a.m p p p k v.* OX% v.0 p p p Z.Q.5.>X X",
"Q.5. X XC.v | |  .y.h. XQ. XQ.5.5. X>X X5.{.u.O.y.P - K u.s.8.p p p p F.* o X   @ V.u p p C Q.5.5. X",
" XQ. X XJ.i ' | y.u.i.{.5. X X>X5.5. X5.5.e...1.u.P - Y.u.u.7.p p p p @X# .     o &Xu p p p m.= E 5.",
">X X X$X%Xp ! ` o.y.u.'.5. X X>X>X5.Q.5.[.2.:.u.u.I , 3.u.u.9.p p p p U.Q O     + %Xu p p t > - : `.",
" X X XP.G.S b ] X.y.u.e.Q. X>X>X X5.5.5.g.H u.u.u.K T u.u.u.u.m p p p S #X^ & $ E.C.p p p y - - , =X",
" X>X X6.S G p v *.1.u.u.[. X>X XQ.5.5.5.J R u.u.u.R T.u.u.u.u.B.p p p p P.1X;X:X&Xp p p p 4 - - N.1X",
" X X5.5.#XF p p l :.u.u.g.g.>X XQ.5.-Xc.- x.u.u.u.I 3.u.u.u.u.8.n p p p N C.A.C.C p p p B 3 - 7 <X1X",
">X5.5.Q.Q.F i p i ] :.u.u.].R.M.).d.u.x.2 3.u.u.u.$.u.i.u.u.u.u.7.m p p p p p p p p p p C 3 - - W 1X",
">X5.Q.Q.G.L.p p ( +.y.u.u.u.I 1 u.u.u.U Y u.u.u.3.t.u.u.u.u.u.u.u.9.v p p p p p p p p p p t > ; , _.",
"g.>X5.Q.5.A.p g o.u.u.u.u.u.K x.u.u.u.Y 4.i.u.u.u.o.@.y.u.i.u.u.u.e.v p p p p p p p p p p p x 5 5 Q.",
"g.>X5.Q.J.p Z ' ` r.y.X.@.u.U t.u.u.s.4.i.u.u.u.t.,.' } { y.i.u.p.v p p p p p p r a p p p p S  X>X X",
" X X>XC.p c ] @.y.@.o.'.<.X.-.r.u.s.s.i.u.u.u.:.r.:.r.:.:.{ +.u.B.p p p p p p u 0 k.i p p N G.>X XQ.",
"!.S.V n k.X. .{ | ;.-X XQ.f.| | O.O.@.@.y.y.,.y.:.y.y.:.u.1.:.w.p p p p p p p e ) u._ i N V 5. XQ.Q.",
"Q.|.F.&.} X.| ,._.Q. X>X X*X,...O.o.| | | ' u.:.y.u.:.u.u...@.7.p p p p p p p q %.:.u.7.V F 5.Q.5.Q.",
" XQ. XQ.:X[.XXQ.5.Q. X>X|.b.p.;.o.} | |  .:.:.y.u.:.u.u...| | ~ p p p p p p r f :.y.w.i._ @X5.Q.Q.5.",
">X XQ.5.5.>X>X XQ.5.Q. XJ._ >.a.(.'.;.| ^ *.y.u.,.u.u...} | |  .v p p p p p p z <.>.a.:.u.g.Q. X XQ.",
">X>X5.5.5.5. X XQ.5.Q. XK.n._.j.>X>X X'.z.( u.1.y.u.O.} | | | | %.n p p p p p p h t.q.u.:.t./.5.>X>X",
" X5.5. XQ.5. X X XQ.5.Q. X>X>X>X>X>X XQ.S.h t.1.u.:.} | | | | | | ) b p p p N N p l.>.*._ z.c >X>X>X",
"5.5.>X>X X X5.Q. X XQ.5.Q. X>X>X>XQ.Q.5.H.e ;.u.f.0.;.o.| | | | | |  .k.m N M D J. XQ.G.Z.H.>X>X>XQ.",
"5.Q. X X X>X>X>X>X>X XQ.5.Q. X>X>X>X>XQ.oXt b.(. X X5..X-X'._.(.g.g.g.g./.U.2X>X>X>X XQ.5.Q. X>X>X>X",
"Q. X XQ.5.Q.Q. X>X X>X>XQ.5.Q. XQ.Q.>X>X X%X$XQ. X XQ.5. X XQ.5.Q. X XQ.5.Q.Q. X>X X>X>XQ.5.Q. XQ.Q.",
"5. X X XQ.5.Q. X>X>X XQ.>X>X X>X X X X X>X5.5.5.5. X XQ.5. X X5.5. X X XQ.5.Q. X>X>X XQ.>X>X X>X X X",
"5. XQ. X5.Q.Q.Q. X XQ.5.Q. X>X>X XQ. X5.5.>X X5.5.Q. XQ.5.Q.>X5.5. XQ. X5.Q.Q.Q. X XQ.5.Q. X>X>X XQ.",
"5. X X>X5.Q.Q.Q. X>X XQ.5.Q. X X>XQ.5.5.Q.>X5. XQ.5.Q. XQ.5. X5.5. X X>X5.Q.Q.Q. X>X XQ.5.Q. X X>XQ.",
"5.5. X X>X>X>X5. X X>X XQ.5. X X5.>XQ.Q. X>X>X XQ.5.Q. X>X5.Q.5.5.5. X X>X>X>X5. X X>X XQ.5. X X5.>X",
"5.5. X>X>X X>X>X X X XQ.5.Q. X5. X>X>XQ. X>X>XQ.5.Q. X>X XQ.5.Q.5.5. X>X>X X>X>X X X XQ.5.Q. X5. X>X",
"Q.5.Q. X>X>X X>X XQ. XQ.5.Q. X5. XQ.>XQ. X X>X5.Q. X>X XQ.5.>X XQ.5.Q. X>X>X X>X XQ. XQ.5.Q. X5. XQ.",
" XQ.5. X X X>X>XQ. X5.5.Q. X X XQ.5.Q.>X XQ.>XQ. X>X XQ.5.Q. X>X XQ.5. X X X>X>XQ. X5.5.Q. X X XQ.5.",
"Q.5.Q.5. X>X5.5.Q. X5.5. X5. X XQ.5.Q.>XQ.5.5.>X>X XQ.5.Q. X>X XQ.5.Q.5. X>X5.5.Q. X5.5. X5. X XQ.5.",
"5.Q.>X>X X5.Q.5. X X5.Q.5. X X>X XQ.5.Q.>X5.5.>X>X XQ.5.Q.>X XQ.5.Q.>X>X X5.Q.5. X X5.Q.5. X X>X XQ."
};
