/* XPM */
static char *bce0d4d353894ecdb9ac82b880eb3ed41gIQMJjU8I1QAMVA[] = {
/* columns rows colors chars-per-pixel */
"50 50 6 1 ",
"  c #91D0D8",
". c #80F0FF",
"X c #D8F7FB",
"o c #02DDFB",
"O c #FFFAAD",
"+ c #F5EE82",
/* pixels */
" .XXX... .X. oo.   oX...o .X..X. .XXX... .X. oo.  ",
" ...X.. o .X. o o  X.X.oo OO..OO ...X.. o .X. o o ",
". . XX. o .X. o  o .X. o .O+OO+O. . XX. o .X. o  o",
"X. ooXX. o . o ..   . o .X.O++O.X. ooXX. o . o .. ",
"XXoooo.. o .X. oXX. o .. o O++O.XXoooo.. o .X. oXX",
".oo. o... o .XXXXX. o . o O+OO+O.oo. o... o .XXXXX",
"ooXX..o .. o .XXX  o . o .OO .OOooXX..o .. o .XXX ",
"o ...XXXXX. o .XXXX . o ..o.XX.oo ...XXXXX. o .XXX",
" .. o  .X.XX o .  XX. o .. o.. o .. o  .X.XX o .  ",
"o... o .XX. XX.X....Xoooo.. o..oo... o .XX. XX.X..",
"o. .o   .. o .XX. .ooX.oo . o Xoo. .o   .. o .XX. ",
"o..Xo   .X. o ..X oo Xo. o . o.oo..Xo   .X. o ..X ",
"oo..XXXo..X. o..oX  .XX. o .Xo ooo..XXXo..X. o..oX",
"oo.XX.XX... o .o.XX .XX o .X. o oo.XX.XX... o .o.X",
" o .XX.X. . o .o. X ..Xo .X. oX. o .XX.X. . o .o. ",
". o...XX .oo ... o X. X .X. o .X. o...XX .oo ... o",
" o o.Xoo .oo.o.. o X ooXX. o .X. o o.Xoo .oo.o.. o",
"o XX.o o..o o..X. o XooXX. o X. o XX.o o..o o..X. ",
"XXX..o oX. oo.X.X. oX oX. o .. oXXX..o oX. oo.X.X.",
"...X..oo ..oo.oX.X. X oX . o X.X...X..oo ..oo.oX.X",
"o..X..oo .Xo . oX.X.XXoXo . oX.Xo..X..oo .Xo . oX.",
" o...o   .o. . oo.X.oXoXo . o.XX o...o   .o. . oo.",
". ...o. o.. o..Xoo.ooXoX o . o.X. ...o. o.. o..Xoo",
"X... o oo.. o..XXo o XoX o ..o XX... o oo.. o..XXo",
".....  oo. o .XX.ooo.X..o .XX oX.....  oo. o .XX.o",
".X.o. ooo. o .X. oooXX.XX .X. oX.X.o. ooo. o .X. o",
"..oo .o o.o ..X. ooo X.o .X. o ...oo .o o.o ..X. o",
"Xoo  o..o.o..X. o o  X.o.X. o ..Xoo  o..o.o..X. o ",
"Xo  o .X..o..XX. o  .o.o.. o .X.Xo  o .X..o..XX. o",
".Xo o .....o.X.X.   ...o . o X...Xo o .....o.X.X. ",
".Xo  o ...ooo.X.X. o .. oo. oX. .Xo  o ...ooo.X.X.",
"..X . ...X. oooX.   .X..oo . .X...X . ...X. oooX. ",
" .XXX... .X. oo.   oX...o .X..X. .XXX... .X. oo.  ",
" ...X.. o .X. o o  X.X.oo .X..X. ...X.. o .X. o o ",
". . XX. o .X. o  o .X. o .X. ..X. . XX. o .X. o  o",
"X. ooXX. o . o ..   . o .X. o o.X. ooXX. o . o .. ",
"XXoooo.. o .X. oXX. o .. o O++O.XXoooo.. o .X. oXX",
".oo. o... o .XXXXX. o . o O+OO+O.oo. o... o .XXXXX",
"ooXX..o .. o .XXX  o . o .OO .OOooXX..o .. o .XXX ",
"o ...XXXXX. o .XXXX . o ..o.XX.oo ...XXXXX. o .XXX",
" .. o  .X.XX o .  XX. o .. o.. o .. o  .X.XX o .  ",
"o... o .XX. XX.X....Xoooo.. o..oo... o .XX. XX.X..",
"o. .o   .. o .XX. .ooX.oo . o Xoo. .o   .. o .XX. ",
"o..Xo   .X. o ..X oo Xo. o . o.oo..Xo   .X. o ..X ",
"oo..XXXo..X. o..oX  .XX. o .Xo ooo..XXXo..X. o..oX",
"oo.XX.XX... o .o.XX .XX o .X. o oo.XX.XX... o .o.X",
" o .XX.X. . o .o. X ..Xo .X. oX. o .XX.X. . o .o. ",
". o...XX .oo ... o X. X .X. o .X. o...XX .oo ... o",
" o o.Xoo .oo.o.. o X ooXX. o .X. o o.Xoo .oo.o.. o",
"o XX.o o..o o..X. o XooXX. o X. o XX.o o..o o..X. "
};
