/* XPM */
static char *_5cbbd3069c846c6eedf8a7b1b2ef55e5rP8G3blcV8z8shr[] = {
/* columns rows colors chars-per-pixel */
"50 50 172 2 ",
"   c #7B7773",
".  c #BD3002",
"X  c #D64102",
"o  c #DF4902",
"O  c #DD4602",
"+  c #DD561E",
"@  c #E34701",
"#  c #E54B03",
"$  c #EC4E02",
"%  c #E14B08",
"&  c #F04F00",
"*  c #ED5302",
"=  c #E95F03",
"-  c #EC540B",
";  c #E65502",
":  c #F25501",
">  c #F45A02",
",  c #FA5D01",
"<  c #EA5713",
"1  c #EC5A16",
"2  c #E05419",
"3  c #E65C1E",
"4  c #EA5C1C",
"5  c #E76202",
"6  c #EF6003",
"7  c #E96B03",
"8  c #F56302",
"9  c #FF6300",
"0  c #FE6A01",
"q  c #EC7502",
"w  c #ED7D02",
"e  c #FE7201",
"r  c #FE7E01",
"t  c #F26D18",
"y  c #E25F22",
"u  c #EA5F20",
"i  c #EC6323",
"p  c #E7652B",
"a  c #E86E37",
"s  c #E6713E",
"d  c #EB7833",
"f  c #DA7546",
"g  c #D37A51",
"h  c #E57343",
"j  c #EA7643",
"k  c #E57A4D",
"l  c #E97C4C",
"z  c #EB7A47",
"x  c #E47E53",
"c  c #EF8902",
"v  c #EC8102",
"b  c #F18603",
"n  c #F08E02",
"m  c #FE8A02",
"M  c #EF9103",
"N  c #F39203",
"B  c #F69B02",
"V  c #F99F04",
"C  c #F18615",
"Z  c #F7A403",
"A  c #F9A403",
"S  c #FBAC02",
"D  c #FBAE0C",
"F  c #FBB303",
"G  c #FCBC02",
"H  c #FCB50B",
"J  c #FBBD0D",
"K  c #F9AE18",
"L  c #F7B411",
"P  c #FAB01F",
"I  c #FBBC1A",
"U  c #FCB313",
"Y  c #EA8422",
"T  c #E9853D",
"R  c #F8AE2A",
"E  c #F7B222",
"W  c #FBB522",
"Q  c #F9BB23",
"!  c #F8B531",
"~  c #FABA37",
"^  c #F9B93F",
"/  c #FDC402",
"(  c #FECC02",
")  c #FCC30E",
"_  c #FCC90D",
"`  c #FFD101",
"'  c #FAC21B",
"]  c #FAC514",
"[  c #F8C12F",
"{  c #FAC521",
"}  c #F6C037",
"|  c #E58157",
" . c #E88054",
".. c #E9855A",
"X. c #EA9254",
"o. c #F8B744",
"O. c #F6BB42",
"+. c #F7B652",
"@. c #F7B955",
"#. c #F7B55A",
"$. c #F7B85F",
"%. c #E88A63",
"&. c #E98D68",
"*. c #E38D69",
"=. c #E7966E",
"-. c #EC9261",
";. c #F29767",
":. c #E49474",
">. c #E69979",
",. c #E99674",
"<. c #F5BD64",
"1. c #F2B16D",
"2. c #F8C844",
"3. c #F5C14D",
"4. c #F7C856",
"5. c #FBCE50",
"6. c #F4C35A",
"7. c #F8C960",
"8. c #F7CD6C",
"9. c #F3C260",
"0. c #F6CB79",
"q. c #F9CF7D",
"w. c #F6D27F",
"e. c #02DDFB",
"r. c #989591",
"t. c #B7B5B2",
"y. c #CC9F87",
"u. c #CD938C",
"i. c #CF9D98",
"p. c #EB9F80",
"a. c #E7A387",
"s. c #F3B496",
"d. c #D2BFB5",
"f. c #D4B6A6",
"g. c #E6B3A0",
"h. c #E6B8A7",
"j. c #F4CF81",
"k. c #F7C584",
"l. c #F1C995",
"z. c #F6D091",
"x. c #FBDC9E",
"c. c #F5EE82",
"v. c #EFCFAA",
"b. c #EFD4AE",
"n. c #F7DAA4",
"m. c #F7D9AE",
"M. c #EDCABD",
"N. c #EDC6B3",
"B. c #FFFAAD",
"V. c #91D0D8",
"C. c #80F0FF",
"Z. c #D8CDC7",
"A. c #C3D4D3",
"S. c #CCDAD9",
"D. c #D1DFDF",
"F. c #C8C7C5",
"G. c #E2CBC2",
"H. c #EFD5C7",
"J. c #F8DEC3",
"K. c #F3D3C7",
"L. c #EDDAD4",
"P. c #F6E3CB",
"I. c #D8F7FB",
"U. c #EEEDED",
"Y. c #F3EDE8",
"T. c #EDF3F3",
"R. c #FCF6F3",
"E. c #F7F9F9",
"W. c white",
"Q. c #FEFEFE",
"!. c #FAFBFB",
"~. c #F3F2F2",
/* pixels */
"V.C.I.I.I.C.C.C.V.C.I.C.V.e.e.C.V.V.V.e.I.C.C.C.e.V.C.I.C.C.I.C.V.C.I.I.I.C.C.C.V.C.I.C.V.e.e.C.V.V.",
"V.C.C.C.I.C.C.V.e.V.C.I.C.V.e.V.e.V.V.I.C.I.C.e.e.V.B.B.C.C.B.B.V.C.C.C.I.C.C.V.e.V.C.I.C.V.e.V.e.V.",
"C.V.C.V.I.I.C.V.e.V.C.I.C.V.e.V.V.e.V.C.I.C.V.e.V.C.B.c.B.B.c.B.C.V.C.V.I.I.C.V.e.V.C.I.C.V.e.V.V.e.",
"I.C.V.e.e.I.I.C.V.e.V.C.V.e.V.C.C.V.V.V.C.V.e.V.C.I.C.B.c.c.B.C.I.C.V.e.e.I.I.C.V.e.V.C.V.e.V.C.C.V.",
"I.I.e.e.e.e.C.C.V.e.V.C.I.C.V.e.I.I.C.V.e.V.C.@.U G / / G F P <.I.I.e.e.e.e.C.C.V.e.V.C.I.C.V.e.I.I.",
"C.e.e.C.V.e.C.C.C.V.e.V.C.I.I.I.I.I.C.V.e.V.W ( ` ( / G G G / G K J.e.C.V.e.C.C.C.V.e.V.C.I.I.I.I.I.",
"e.e.I.I.C.C.e.V.C.C.V.e.V.C.I.I.I.V.V.e.V.W ( ( S F ( ` ` ( / G / I I.I.C.C.e.V.C.C.V.e.V.C.I.I.I.V.",
"e.V.C.C.C.I.I.I.I.I.C.V.e.V.C.I.I.I.I.V.~ ( / A / ` ` ` ` ` ` ` ` ` 3.C.C.I.I.I.I.I.C.V.e.V.C.I.I.I.",
"V.C.C.V.e.V.V.C.I.C.I.I.V.e.V.C.V.V.I.I.( / A ( ` ` ( G G ( ` ` ` ( 7.V.e.V.V.C.I.C.I.I.V.e.V.C.V.V.",
"e.C.C.C.V.e.V.C.I.I.C.V.I.I.C.I.C.C.C.C.( A / ` / S F / / / G ` ] n.C.C.V.e.V.C.I.I.C.V.I.I.C.I.C.C.",
"e.C.V.C.e.V.V.V.C.C.V.e.V.C.I.I.C.V.$./ F S ( G A / ` ` ` ` ` ` e.C.V.C.e.V.V.V.C.C.V.e.V.C.I.I.C.V.",
"e.C.C.I.e.V.V.V.C.I.C.V.e.V.C.C.I.H.F ( V / / A ( ` ` ` ` ` ` ` e.C.C.I.e.V.V.V.C.I.C.V.e.V.C.C.I.V.",
"e.e.C.C.I.I.I.e.C.C.I.C.V.e.C.C.e.+./ F S ( A / ` ` ` ` ` ` ` ` 8.e.C.C.I.I.I.e.C.C.I.C.V.e.C.C.e.I.",
"e.e.C.I.I.C.I.I.C.C.u.i.e.V.C.e.C.H / A / S S ( / S S F F G ( ` 6.e.C.I.I.C.I.I.C.C.C.V.e.V.C.e.C.I.",
"V.e.V.C.I.I.C.I.C.G.Z.L.H.V.C.e.R G A S S S / G A G ( ` ` ` ` ) V.e.V.C.I.I.C.I.C.V.C.V.e.V.C.e.C.V.",
"C.V.e.C.C.C.I.I.d.S.!.W.W.M.a.d w q c N A S A S / G G / ` _ 9.I.C.V.e.C.C.C.I.I.V.C.e.e.V.C.C.C.V.e.",
"V.e.V.e.C.I.e.h.A.T.W.W.W.R.i > & : : $ * 5 n V S G G / _ C.I.C.V.e.V.e.C.I.e.e.V.C.e.e.C.e.C.C.V.e.",
"e.V.I.I.C.e.$ f A.E.W.U.~.W.j : & : : : : & > ; w B A / ] I.C.V.e.V.I.I.C.e.V.e.C.C.e.V.e.C.C.I.C.V.",
"I.I.a.3 $ & & y A.T.~.  r.R.i > , , 0 9 , , > : : = N / ( m.V.e.I.I.I.C.C.e.V.e.I.C.V.e.e.C.I.C.I.C.",
"C.x * : , , , : y.D.!.t.F.s., 9 9 9 0 9 9 0 9 , > : 6 v G v.C.I.C.C.C.I.C.C.e.e.V.C.C.e.e.C.e.I.C.I.",
"e.$ : 9 9 9 9 9 > g f.N.;.9 9 9 9 9 0 0 0 e 9 0 9 > : > X.I.C.I.e.C.C.I.C.C.e.e.V.C.I.e.V.C.V.e.I.C.",
"V.& > 9 9 9 9 9 9 9 , > , 9 9 9 0 r 9 9 9 0 9 9 9 9 > : - K.I.I.V.e.C.C.C.e.V.V.V.C.e.C.V.C.V.e.e.C.",
"C.u & , 9 9 9 9 9 9 9 9 9 9 9 9 9 9 9 9 9 9 9 0 0 9 9 > > a C.I.C.V.C.C.C.e.C.V.e.C.l 3 % 2  .I.e.e.",
"I.C.j $ $ # X > 9 9 9 9 9 9 9 9 9 9 9 9 0 9 9 0 0 9 0 9 > * V.I.I.C.C.C.V.e.g.l - $ $ * * * $ # &.e.",
"C.C.C.C.C.V.. , 9 9 9 9 9 9 9 9 9 9 m 0 9 9 9 9 9 9 9 9 0 > s I.C.C.C.C.C.l * $ $ > 9 9 9 9 9 > # e.",
"C.I.C.e.C.V.$ , 9 9 9 9 9 9 9 9 9 9 9 9 9 9 0 9 9 e 9 0 9 9 > k C.I.C.| - $ $ > > * * * * * 9 9 > e.",
"C.C.+ @ $ & & , 9 9 9 9 9 > 9 9 9 9 9 9 0 9 9 9 0 0 9 0 9 9 0 , - - $ $ $ * : $ > 9 9 9 9 , * , 9 e.",
"I.e.k & & & & > 9 9 9 9 9 * 9 9 9 9 9 9 9 9 0 0 9 9 9 0 9 0 0 9 * o o # * * > > > : * $ $ : , * 9 V.",
"I.e.V.< & & & : 9 9 9 9 9 * > 9 9 9 9 9 9 9 9 9 9 9 9 9 9 9 , > # O # # * * * * > , , 9 , > * * 9 e.",
"C.I.e.V.* & & & > 9 9 9 > > * , 9 9 9 9 9 9 9 9 9 9 9 9 9 > & & $ $ # * * : : : * * $ 9 9 9 : > > V.",
"C.I.e.V.V.* & & & > 9 > : * > > 9 9 9 9 9 9 9 9 9 9 9 , : & u >.C.>.- * * * # $ > 9 9 * , 9 9 : , C.",
"C.C.I.V.C.V.< & & & $ : 9 , 9 9 9 9 9 9 9 9 9 9 9 , : & $ k I.C.C.C.x : > * : > > $ , 9 * 9 9 > > = ",
"V.C.I.I.I.C.C.l * & & : > , 9 9 9 9 9 9 9 9 , > : & & $ ,.C.I.C.V.C.*.: > * 9 $ 9 9 * 9 > 9 9 9 : M ",
"V.C.C.C.I.C.C.V.T * $ & & & : : > > > > : : & & & & - >.C.C.I.C.V.C.h : > * 9 * 9 9 9 > 9 9 9 9 4 V.",
"C.V.C.V.I.I.C.E N C C.h $ & & & & & & & & & & & $ ..I.C.V.C.C.I.C.V.4 > > : 9 * 9 9 9 9 9 9 9 , | e.",
"I.C.V.e.e.I.F A Z 1.V.C.Y 7 = i 1 - - - 1 i j p.C.I.C.V.e.V.e.C.I.M.* > : > 9 9 9 9 9 9 t ;.-.d :.V.",
"I.I.e.e.e.H S S A b.V.C.A A V e.I.I.C.V.e.V.C.C.V.e.V.B.c.c.B.C.I.%.* 9 : , 9 9 9 9 8 b #.C.V.e.I.I.",
"C.e.e.C.<.F S S F P.e.V.F A G A <.I.C.V.e.V.C.V.e.V.B.c.B.B.c.B.C.1 * 9 , , 9 9 9 8 B H C.I.I.I.I.I.",
"e.e.I.I.Q ( F S J C.V.[ S S / / / x.V.e.V.C.V.e.V.C.B.B.V.C.B.B.e.* , 9 9 9 9 > b V G 0.V.C.I.I.I.V.",
"e.V.C.C.) ( G / O.I.C.I S / F ` ` w.I.V.C.V.e.V.C.C.e.C.I.I.C.e.%.> , 9 9 9 q N G F } V.e.V.C.I.I.I.",
"V.C.C.V.) ( { q.I.C.I.I S ( S ( ( b.I.I.C.V.e.V.C.C.V.e.C.C.V.e.z , 9 9 8 N S G / J I.I.V.e.V.C.V.V.",
"e.C.C.C.! z.V.C.I.I.C.^ S / ( ( 4.C.C.C.I.e.e.e.e.C.C.V.e.C.C.e..., 9 8 N F A ( G 2.C.V.I.I.C.I.C.C.",
"e.C.V.C.e.V.V.V.C.C.V.l.H ( ( ' C.V.C.e.e.I.C.e.e.V.C.V.e.V.I.e.e.* > =.6.F S / G 5.V.e.V.C.I.I.C.V.",
"e.C.C.I.e.V.V.V.C.I.C.V.e.D G o.I.V.e.e.V.I.e.C.V.e.V.C.V.e.C.e.e.C.p L.Y.j.L F G ' C.V.e.V.C.C.I.V.",
"e.e.C.C.I.I.I.e.C.C.I.C.V.e.k.k.e.I.V.V.C.I.I.C.V.e.V.C.I.e.V.e.e.e.C.C.I.I.I.0.~ Q I.C.V.e.C.C.e.I.",
"e.e.C.I.I.C.I.I.C.C.C.V.e.V.C.e.C.I.I.V.C.I.I.V.e.V.C.I.C.V.e.V.e.e.C.I.I.C.I.I.C.C.C.V.e.V.C.e.C.I.",
"V.e.V.C.I.I.C.I.C.V.C.V.e.V.C.e.C.V.I.V.C.C.I.e.V.C.I.C.V.e.I.C.V.e.V.C.I.I.C.I.C.V.C.V.e.V.C.e.C.V.",
"C.V.e.C.C.C.I.I.V.C.e.e.V.C.C.C.V.e.V.I.C.V.I.V.C.I.C.V.e.V.C.I.C.V.e.C.C.C.I.I.V.C.e.e.V.C.C.C.V.e.",
"V.e.V.e.C.I.e.e.V.C.e.e.C.e.C.C.V.e.V.I.V.e.e.I.I.C.V.e.V.C.I.C.V.e.V.e.C.I.e.e.V.C.e.e.C.e.C.C.V.e.",
"e.V.I.I.C.e.V.e.C.C.e.V.e.C.C.I.C.V.e.V.I.e.e.I.I.C.V.e.V.I.C.V.e.V.I.I.C.e.V.e.C.C.e.V.e.C.C.I.C.V."
};
