/* XPM */
static char *_4bee466f45b45cff14343401c7521a633r68NQ7RCIzjUmB[] = {
/* columns rows colors chars-per-pixel */
"50 50 168 2 ",
"   c #F5EC5E",
".  c #F5EC65",
"X  c #F5ED6B",
"o  c #F6EE74",
"O  c #F6EE7C",
"+  c #F8F077",
"@  c #F7F07C",
"#  c #F8F17D",
"$  c #F6EF83",
"%  c #F5EF8A",
"&  c #F7F084",
"*  c #F8F184",
"=  c #F7F189",
"-  c #F7F088",
";  c #F6F08A",
":  c #F7F08A",
">  c #F7F18A",
",  c #F7F08B",
"<  c #F7F18B",
"1  c #F7F08C",
"2  c #F7F18C",
"3  c #F6F08D",
"4  c #F7F08D",
"5  c #F7F18D",
"6  c #F6F08E",
"7  c #F7F08E",
"8  c #F7F18E",
"9  c #F6F08F",
"0  c #F7F18F",
"q  c #F7F08B",
"w  c #F8F188",
"e  c #F8F189",
"r  c #F8F288",
"t  c #F9F288",
"y  c #F9F388",
"u  c #F8F289",
"i  c #F9F289",
"p  c #F9F389",
"a  c #F8F18A",
"s  c #F8F18B",
"d  c #F8F28A",
"f  c #F9F28A",
"g  c #F8F28B",
"h  c #F9F28B",
"j  c #F8F18C",
"k  c #F8F18D",
"l  c #F8F28C",
"z  c #F9F28C",
"x  c #F9F38C",
"c  c #F8F28D",
"v  c #F9F28D",
"b  c #F9F38D",
"n  c #FAF38C",
"m  c #FAF38D",
"M  c #F8F18F",
"N  c #F8F28E",
"B  c #F9F28E",
"V  c #F9F38E",
"C  c #F8F28F",
"Z  c #F9F38F",
"A  c #FAF38E",
"S  c #FBF48C",
"D  c #FBF48D",
"F  c #FBF48E",
"G  c #F9F28C",
"H  c #F5EF92",
"J  c #F6F090",
"K  c #F7F090",
"L  c #F7F190",
"P  c #F6F091",
"I  c #F7F091",
"U  c #F7F191",
"Y  c #F7F192",
"T  c #F7F193",
"R  c #F7F194",
"E  c #F6F095",
"W  c #F7F195",
"Q  c #F7F197",
"!  c #F7F192",
"~  c #F8F290",
"^  c #F9F290",
"/  c #F9F390",
"(  c #F8F291",
")  c #F9F291",
"_  c #F9F391",
"`  c #FAF391",
"'  c #F8F292",
"]  c #F9F292",
"[  c #F9F392",
"{  c #F8F293",
"}  c #F9F293",
"|  c #F9F393",
" . c #FAF490",
".. c #FBF590",
"X. c #FAF492",
"o. c #FBF592",
"O. c #FAF493",
"+. c #F8F294",
"@. c #F9F394",
"#. c #F8F295",
"$. c #F9F395",
"%. c #F8F296",
"&. c #F9F396",
"*. c #F9F397",
"=. c #FAF494",
"-. c #FBF494",
";. c #FAF495",
":. c #FBF495",
">. c #FAF496",
",. c #FBF596",
"<. c #FAF497",
"1. c #FBF597",
"2. c #F9F393",
"3. c #F7F298",
"4. c #F7F298",
"5. c #F9F398",
"6. c #F8F299",
"7. c #F9F399",
"8. c #F9F39A",
"9. c #F9F39B",
"0. c #F9F498",
"q. c #F9F499",
"w. c #FAF498",
"e. c #FBF598",
"r. c #FAF499",
"t. c #FBF599",
"y. c #F9F49A",
"u. c #F9F49B",
"i. c #FAF49A",
"p. c #FBF59A",
"a. c #FAF49B",
"s. c #FBF59B",
"d. c #FCF69B",
"f. c #F9F39C",
"g. c #F9F39D",
"h. c #F9F49D",
"j. c #FAF49C",
"k. c #FAF49D",
"l. c #FAF59D",
"z. c #FBF59D",
"x. c #FAF49E",
"c. c #FBF59E",
"v. c #FAF59F",
"b. c #FBF59F",
"n. c #FBF69E",
"m. c #FBF69F",
"M. c #FCF69C",
"N. c #FCF69E",
"B. c #FAF49B",
"V. c #FAF5A0",
"C. c #FBF5A0",
"Z. c #FBF6A0",
"A. c #FBF6A1",
"S. c #FBF6A2",
"D. c #FCF7A0",
"F. c #FCF6A1",
"G. c #FCF6A2",
"H. c #FDF7A2",
"J. c #FDF7A3",
"K. c #FCF6A4",
"L. c #FCF6A2",
"P. c #FDF8A4",
"I. c #FDF8A6",
"U. c #FDF8A7",
"Y. c #FDF8A4",
"T. c #FEF9A8",
"R. c #FEF9AA",
"E. c #FEF9AA",
/* pixels */
"x # f t o @.o t * # t o f + # o.o x @ @ t o x o # * o x o f @ @ x o x + # t o f + t f o @.o t t # x ",
"x w.I.: f o @./ / @.* x x f x I.v.t @ $ w.f @.1 * / f / x I.1 f o @.@.f 7.* f 1 f f J.v.& t $ w.x @.",
"+ & x f / w.x : x O X & / o t & @.# v.O @.$ / o . / $ o & x / t w.x : x O o @ 1 o # $ @.# w.t @.& / ",
"o v.o.t 7.E : w.o X $ $ v.o.: x F x f.% / x o X O : T.@ w.o.t @.E : w.* X $ O 7.o.O w.F 1 w.% / / o ",
"o w.@.w.x / f / # o U @.x * & w.@.@.-.o -.x o $ 7./ f o @.@.w.f / f @.t o 1 v.: * o v.@.w.x $ -.x + ",
"1 @.w.O & t $ C.C.@ o o / U $ U @.o x O / v.-.. o + 1 : 1 w.$ O f $ C.v.@ X o & U $ @./ O t $ / v.C.",
": x f C.-.T.x 7./ O o : O O / & @.I.o.-.w.E f $ & & @ O -.f v.M.M.x v.7.O o f $ O x t @.I.-.M.w.7.f ",
"x % M.$ & @.@.$ o O $ t & x 1 w./ % $ v.@.o $ o & f / x $ M.% & @.@.1 o O O x & x 1 / / $ & v.@.O O ",
": % @./ 1 1 $ o / / t % 3.@.O U @./ E & o x : f 1 E U 1 $ @.w.1 1 $ o x / & 1 3.@.$ U / : @.: o & 1 ",
"w.7.@.-.: F : / f $ & $ w.w.@.w./ @.f C.$ w.O & $ f / w.w.@.w.: -.: U x $ * $ o.w.-.w./ @.f w.$ -.& ",
"& C.K.O $ w.x @.X X X 7.v.U o.C.-.$ x % w.o o o o w.@.$ J.K.o $ / x v.o X o f v.U f C.-.O & U w.& o ",
"@.t o.w.& $ o o f X $ : : / f -.x x & & o o * o & : / v.o o.v.$ : o o t X % x & @./ x x @.& & o o t ",
"% 7.& o 1 1 E w.o @.t o 1 / U f O & % @.@.x & w.o./ o.U E & X U 1 E w.o $ O M.: / % @.O t % U @.-.o ",
"E x o o o C.3.U -.x & # * O @.@ + o & f.7.f -.x @.t o 1 / o @ o w.3.U -.t o -.# O @.t + o $ v.7.1 -.",
"F -.J.x & : C.M.* f o : : f F v.d./ o 7.J.o.t o + 1 : -.f J.: f & v.J.# f o & 1 f t J.d.7.o / J.w.t ",
"o 1 w.x x x f x @.1 o f v.$ o v.E f x O @.$ w.O o w.1 O $ w.1 f x f / 1 1 o * 7.$ o @.E S f & @.1 v.",
"@ % t # @.@.U / f o o o 1 + / o x o C.$ / * x o . : / + 1 t # x w.U x x o o o : + f $ x + w.: / f x ",
"o J.w.-.7.7.: / X X 1 / 7.-.x w.o.7.C.% / : . o U / I.@ C.w.-.@.7.: @.o X $ / 7.-.& M.o.@.v.1 / : X ",
"o / @.7.t @.x v.d.o $ O / O O U w./ / $ v.v.f o : @ & o : @.7.t @.x J.M.o $ & t O o @.w.7.t $ v.v.-.",
"* / @ x / F x E U o o @.o O * @ : o./ F / U : o $ x o o -.@ 1 -.x x U E o X 7.o O * t : F / F / E : ",
"% / w.@.f v.$ E 1 & @ & : : U -.w.w.t x U % 1 * t $ / $ / w.@.-.-.$ 7.1 & o t : : U / w.@.f o.U U : ",
"/ % J.$ $ E / o O $ o & : / 1 7.w.$ $ w.f o $ o o 1 @./ % J.$ $ E / o o $ o : & / 1 E -.% $ 7.f o O ",
"-.1 % v./ / : : / U / % 7.w.& 1 x -.@.o.$ v.$ x 1 U U -.: % J.x / : $ / U / % @.w.f 1 x x 7.o.$ / : ",
"x M.K.x O * $ 7.O o X $ w.-.o.K.w.: + U 1 x o o o & -.x M.K.x O f $ 7.& o X O / -.f K.w.1 + : 1 @.o ",
"/ -.C.f & x & x + . O o./ 7.-.v.w.& f % t o + o O @.v.@.-.C.x $ x & / # . $ x x 7.@.w.w.& t 1 t & + ",
"/ 1 t & % U & + & o & 1 / : x x $ & % x $ O @ o / 1 x @.$ t & % U & @ @ o $ @.: : / x $ x % x $ o O ",
"% @.o X o v.H 1 & f f o o f % x X o & 7.E $ f -.-.f t U x o X o -.H U & o o J.o f $ @.X o O 7.U : & ",
"v.x * x o v.v.w.f w.x t x o w.O -.O O C.C.f o.w.w.-.o -.x * -.o -.v.v.t t O -./ o w.t o.& o C.C./ x ",
"f -.T.$ & o 7.-.o.v.t 1 & : f T.-.1 o $ v./ -./ t x f / f T.$ x o 7.w.x -.# x : : * K.-.1 & $ v.-.w.",
"+ & x f / w.x : x O X & / o t & @.# C.O @.$ / o . / $ o & x / t w.x : x O o @ 1 o # $ @.# w.t @.& / ",
"o 7.f * 7.H % v.@ X o o v.F % & S : 7.% x f @ X o % T.+ E f # / E % w.t X O o 7.F O / S & 7.H x -.& ",
"$ v.w./ / w.: / o o U w.1 x x v./ @.v.$ / f o $ 7.@.-.& w.w.x 1 w.: / @ o 1 v.1 x & v./ 7.-.: / f o ",
"& w.w.& & & & v.v.o o o x & O @.-.O t o / w.x X O # : & / w.& O & & C.v.o o & & & O w.-.& & o / v.w.",
": x f C.-.T.x 7./ O o : O O / & @.I.o.-.w.E f $ & & @ O -.f v.M.M.x v.7.O o f $ O x t @.I.-.M.w.7.f ",
": : M.$ t @.U % $ & : f & f % w./ : & v.U O $ * f : / : $ M.% f / U 1 O & & / & f 1 / / $ f w.U $ $ ",
"f % w.x & % & o f f & % U @.O E w.: % & O t : * : 1 E x $ w./ & % & o t f O 1 U @.& U w.& 1 : O O & ",
"w.7.@.-.: F : / f $ & $ w.w.@.w./ / f v.$ w.O & $ f / w.w.@.-.& -.: U x $ * $ o.w.-.w./ @.f w.$ -.& ",
"& C.K.$ $ w./ U X X X / K.@.o.C.w.$ f % v.o X o o w.v.$ J.U.$ $ / / 7.o X X & J./ f C.w.$ & 1 v.$ X ",
"@.f w.-.& $ o O f X O x $ E f M./ x & $ o o t o O 1 / f.* w.w.O : o $ f X $ x $ E / o./ / & $ o o f ",
"1 7.$ o 1 U E / o O o O / / U f O O % v.1 : o o f o -./ E $ X U U E x o O O & f / U / O & % 7.1 x o ",
"E x o o o v.3.U -.t $ # * O @.@ + o & f.7.f -.* O * o 1 / o @ o w.3.U -.t o # * O @.t + o $ v.7.1 -.",
"o.o.w.x O U v.J.t K.# x x & -.o.d.: O v.C.w.F M.x w.& o.F w.f & 1 v.J.t x o w./ & F w.d.1 O 7.C.M.f ",
"& x C.: t @ x x @.1 * & 7.& O C.7.f & O w.$ w.$ @ / f : & C.% f @ x / 1 1 * t E & O w.7.f * O w.: v.",
"@ % t # @.@.U / f o o o 1 + / o x o C.$ / * x o . : / + 1 t # x w.U x x o o o : + f $ x + w.: / f x ",
"O T.D.-.f.f.: @.X . : 1 v.-./ D.-.v.C.% / 1   + % / T.@ I.D.o.@.f.: w.o . $ 1 f.-.& I.-.7.C.1 / U . ",
"o / / 7.f @.f @.S o 1 x x O $ U @./ o.O w./ t o @.f t o 1 / 7.t / f w.F o % @.& O o @.7.7.f $ w./ f ",
"& / f : x F f 7.@.o o f O & & & 1 f x f / @.x o O t o O @.f : f x f 7.7.o X x o & & f 1 f x f / 7./ ",
"% / w.@.f v.$ E 1 & @ & : : U -.w.w.t x U % 1 * t $ / $ / w.@.-.-.$ 7.U & o t : : U / w.@.f o.U U 1 ",
"x % w.% & @./ O o o o * & x 1 7./ $ $ w.x o O X o f / x $ v.% & @.@.& o o o f & x 1 U / $ & w./ o O ",
"x % 1 -.@.@.: o / / x U 7.@.$ % x -.7./ O / : / U 3.U x $ 1 w./ / : o x / x 1 7.@.& % x x 7./ O : : "
};
